<svg xmlns="http://www.w3.org/2000/svg" width="50" height="50" viewBox="0 0 50 50"><rect width="100%" height="100%" fill="#808080"/><path fill="#FFFFFF" d="m11.775 22.255-.28 1.65q.27-.05.51-.08.24-.02.47-.02.62 0 1.1.19.48.18.8.51.33.33.49.78.17.44.17.95 0 .63-.22 1.16-.23.52-.62.89-.4.37-.94.57-.54.21-1.18.21-.37 0-.71-.08-.34-.08-.63-.21-.29-.12-.54-.29-.25-.17-.45-.36l.42-.57q.13-.19.34-.19.14 0 .28.09.15.08.33.19.18.1.43.19t.61.09q.37 0 .66-.12.28-.12.47-.34.19-.22.29-.52.09-.3.09-.65 0-.65-.37-1.01-.38-.37-1.12-.37-.56 0-1.16.21l-.84-.24.66-3.86h3.92v.57q0 .3-.18.48t-.61.18h-2.19Zm9.97 2.74q0 1.04-.22 1.81t-.61 1.27q-.4.5-.93.74-.54.25-1.16.25-.62 0-1.15-.25-.53-.24-.93-.74-.39-.5-.61-1.27-.22-.77-.22-1.81t.22-1.81q.22-.76.61-1.26.4-.5.93-.75.53-.24 1.15-.24.62 0 1.16.24.53.25.93.75.39.5.61 1.26.22.77.22 1.81Zm-1.4 0q0-.86-.12-1.43-.13-.56-.34-.9-.21-.33-.49-.47-.27-.13-.57-.13-.29 0-.57.13-.27.14-.48.47-.21.34-.33.9-.12.57-.12 1.43 0 .87.12 1.43.12.57.33.91.21.33.48.47.28.13.57.13.3 0 .57-.13.28-.14.49-.47.21-.34.34-.91.12-.56.12-1.43Zm5.46 1.01 1.93 2.97h-1.31q-.15 0-.24-.08-.09-.07-.15-.17l-1.19-1.97q-.03.1-.07.18-.03.08-.08.15l-1.05 1.64q-.06.09-.15.17-.09.08-.22.08h-1.22l1.94-2.91-1.86-2.73h1.31q.15 0 .22.04t.12.13l1.19 1.88q.06-.18.17-.36l.95-1.49q.12-.2.31-.2h1.25l-1.85 2.67Zm4.47-3.75-.28 1.65q.27-.05.51-.08.24-.02.47-.02.62 0 1.1.19.48.18.81.51.32.33.49.78.16.44.16.95 0 .63-.22 1.16-.22.52-.62.89t-.94.57q-.54.21-1.18.21-.37 0-.71-.08-.33-.08-.63-.21-.29-.12-.54-.29-.25-.17-.45-.36l.42-.57q.13-.19.34-.19.14 0 .28.09.15.08.33.19.19.1.44.19t.6.09q.37 0 .66-.12.28-.12.47-.34.19-.22.29-.52.1-.3.1-.65 0-.65-.38-1.01-.38-.37-1.11-.37-.57 0-1.16.21l-.85-.24.66-3.86h3.93v.57q0 .3-.19.48-.18.18-.61.18h-2.19Zm9.98 2.74q0 1.04-.23 1.81-.22.77-.61 1.27-.4.5-.93.74-.54.25-1.16.25-.62 0-1.15-.25-.53-.24-.92-.74t-.61-1.27q-.22-.77-.22-1.81t.22-1.81q.22-.76.61-1.26t.92-.75q.53-.24 1.15-.24.62 0 1.16.24.53.25.93.75.39.5.61 1.26.23.77.23 1.81Zm-1.41 0q0-.86-.12-1.43-.13-.56-.34-.9-.21-.33-.49-.47-.27-.13-.57-.13-.29 0-.56.13-.28.14-.48.47-.21.34-.34.9-.12.57-.12 1.43 0 .87.12 1.43.13.57.34.91.2.33.48.47.27.13.56.13.3 0 .57-.13.28-.14.49-.47.21-.34.34-.91.12-.56.12-1.43Z"/></svg>